<?xml version="1.0" standalone="no"?><!DOCTYPE svg PUBLIC "-//W3C//DTD SVG 1.1//EN" "http://www.w3.org/Graphics/SVG/1.1/DTD/svg11.dtd"><svg t="1647010645646" class="icon" viewBox="0 0 1024 1024" version="1.1" xmlns="http://www.w3.org/2000/svg" p-id="2732" xmlns:xlink="http://www.w3.org/1999/xlink" width="200" height="200"><defs><style type="text/css"></style></defs><path d="M512 768C335.552 768 192 624.448 192 448s143.552-320 320-320 320 143.552 320 320c0 22.6816-2.3936 45.3376-7.104 67.3408l-25.024-5.3504A297.216 297.216 0 0 0 806.4 448c0-162.3424-132.0576-294.4-294.4-294.4S217.6 285.6576 217.6 448s132.0576 294.4 294.4 294.4a293.7344 293.7344 0 0 0 261.0816-158.2336l22.6944 11.8528A319.2704 319.2704 0 0 1 512 768z" fill="" p-id="2733"></path><path d="M808.6528 568.2304l-23.7312-9.6512c3.1872-7.8336 6.08-15.9488 8.576-24.1024l24.4736 7.5008a325.696 325.696 0 0 1-9.3184 26.2528zM512 704c-141.1584 0-256-114.8416-256-256 0-13.5808 1.0624-27.1744 3.1744-40.4096l25.28 4.0192A232.448 232.448 0 0 0 281.6 448c0 127.04 103.36 230.4 230.4 230.4s230.4-103.36 230.4-230.4-103.36-230.4-230.4-230.4a230.1312 230.1312 0 0 0-203.5456 122.368l-22.6048-12.0192A255.6672 255.6672 0 0 1 512 192c141.1584 0 256 114.8416 256 256s-114.8416 256-256 256z" fill="" p-id="2734"></path><path d="M289.6256 387.4688l-24.704-6.6944c2.3808-8.768 5.2736-17.5232 8.6144-26.048l23.8208 9.344a229.5168 229.5168 0 0 0-7.7312 23.3984zM512 486.4c-21.1712 0-38.4-17.2288-38.4-38.4s17.2288-38.4 38.4-38.4 38.4 17.2288 38.4 38.4-17.2288 38.4-38.4 38.4z m0-51.2a12.8 12.8 0 1 0 0 25.6 12.8 12.8 0 0 0 0-25.6zM805.6448 243.2a12.7488 12.7488 0 0 1-9.0496-3.7504l-127.2448-127.2448a12.8 12.8 0 0 1 0-18.0992C688.768 74.688 714.5728 64 742.0288 64s53.2608 10.688 72.6784 30.1056c40.0768 40.0768 40.0768 105.28 0 145.344a12.8 12.8 0 0 1-9.0624 3.7504zM697.2544 103.8848l107.648 107.6608a77.312 77.312 0 0 0-8.2944-99.3536A76.736 76.736 0 0 0 742.0288 89.6a76.5696 76.5696 0 0 0-44.7744 14.2848z" fill="" p-id="2735"></path><path d="M733.3376 157.3504l18.112 18.0992-38.4 38.4-18.112-18.0992zM805.6448 115.9552a12.7872 12.7872 0 0 1-9.0496-21.8496l19.9552-19.9552a12.7872 12.7872 0 1 1 18.0992 18.0992l-19.9552 19.9552a12.7616 12.7616 0 0 1-9.0496 3.7504zM218.3552 243.2a12.7488 12.7488 0 0 1-9.0496-3.7504c-40.0768-40.0768-40.0768-105.28 0-145.344C228.7104 74.688 254.528 64 281.9712 64s53.2608 10.688 72.6784 30.1056a12.7488 12.7488 0 0 1 0 18.0992l-127.2448 127.2448a12.8 12.8 0 0 1-9.0496 3.7504z m63.616-153.6c-20.608 0-40 8.0256-54.5792 22.6048a77.312 77.312 0 0 0-8.2944 99.3536l107.648-107.6608A76.4928 76.4928 0 0 0 281.9712 89.6z" fill="" p-id="2736"></path><path d="M290.6496 157.3504l38.4 38.4-18.0992 18.0992-38.4-38.4zM218.3552 115.9552a12.7616 12.7616 0 0 1-9.0496-3.7504L189.3504 92.2496a12.7872 12.7872 0 1 1 18.0992-18.0992l19.9552 19.9552a12.7872 12.7872 0 0 1-9.0496 21.8496zM499.2 89.6h25.6v51.2h-25.6z" fill="" p-id="2737"></path><path d="M563.2 102.4h-102.4a12.8 12.8 0 0 1-12.8-12.8V38.4a12.8 12.8 0 0 1 12.8-12.8h102.4a12.8 12.8 0 0 1 12.8 12.8v51.2a12.8 12.8 0 0 1-12.8 12.8z m-89.6-25.6h76.8V51.2h-76.8v25.6zM320 793.6a12.8 12.8 0 0 1-11.8912-17.5488l25.6-64a12.8 12.8 0 0 1 23.7824 9.4976l-25.6 64A12.8 12.8 0 0 1 320 793.6zM704 793.6a12.8 12.8 0 0 1-11.8912-8.0512l-25.6-64a12.8 12.8 0 0 1 23.7824-9.4976l25.6 64A12.8 12.8 0 0 1 704 793.6zM512 435.2a12.8 12.8 0 0 1-12.8-12.8v-89.6a12.8 12.8 0 1 1 25.6 0v89.6a12.8 12.8 0 0 1-12.8 12.8zM678.4 460.8H537.6a12.8 12.8 0 1 1 0-25.6h140.8a12.8 12.8 0 1 1 0 25.6zM512 243.2a12.8 12.8 0 0 1-12.8-12.8v-25.6a12.8 12.8 0 1 1 25.6 0v25.6a12.8 12.8 0 0 1-12.8 12.8zM665.8688 306.9312a12.7872 12.7872 0 0 1-9.0496-21.8496l18.0992-18.0992a12.7872 12.7872 0 1 1 18.0992 18.0992l-18.0992 18.0992a12.7488 12.7488 0 0 1-9.0496 3.7504zM755.2 460.8h-25.6a12.8 12.8 0 1 1 0-25.6h25.6a12.8 12.8 0 1 1 0 25.6zM683.968 632.768a12.7616 12.7616 0 0 1-9.0496-3.7504l-18.0992-18.0992a12.7872 12.7872 0 1 1 18.0992-18.0992l18.0992 18.0992a12.7872 12.7872 0 0 1-9.0496 21.8496zM512 704a12.8 12.8 0 0 1-12.8-12.8v-25.6a12.8 12.8 0 1 1 25.6 0v25.6a12.8 12.8 0 0 1-12.8 12.8zM340.032 632.768a12.7872 12.7872 0 0 1-9.0496-21.8496l18.0992-18.0992a12.7872 12.7872 0 1 1 18.0992 18.0992l-18.0992 18.0992a12.7616 12.7616 0 0 1-9.0496 3.7504zM294.4 460.8h-25.6a12.8 12.8 0 1 1 0-25.6h25.6a12.8 12.8 0 1 1 0 25.6zM358.1312 306.9312a12.7616 12.7616 0 0 1-9.0496-3.7504l-18.0992-18.0992a12.7872 12.7872 0 1 1 18.0992-18.0992l18.0992 18.0992a12.7872 12.7872 0 0 1-9.0496 21.8496z" fill="" p-id="2738"></path></svg>