<?xml version="1.0" standalone="no"?><!DOCTYPE svg PUBLIC "-//W3C//DTD SVG 1.1//EN" "http://www.w3.org/Graphics/SVG/1.1/DTD/svg11.dtd"><svg t="1647010718883" class="icon" viewBox="0 0 1024 1024" version="1.1" xmlns="http://www.w3.org/2000/svg" p-id="3526" xmlns:xlink="http://www.w3.org/1999/xlink" width="200" height="200"><defs><style type="text/css"></style></defs><path d="M315.853641 673.146054c-21.52774 0-39.736975-6.154835-52.699-19.173586l-22.889178-22.860815c-44.842368-44.842368-8.565715-151.346536 82.537185-242.506163l60.555632-60.527269a13.274022 13.274022 0 1 1 18.833228 18.804864l-60.555633 60.555632c-84.636069 84.692796-111.439382 175.880786-82.537185 204.839709l22.889178 22.860815c28.93056 28.93056 120.090186 2.127247 204.782982-82.537186l60.527269-60.583996a13.330748 13.330748 0 0 1 18.889954 18.861591l-60.583996 60.555632c-64.696673 64.696673-137.164889 101.710772-189.750436 101.710772z" fill="#F15A25" p-id="3527"></path><path d="M265.281888 642.286791a13.302385 13.302385 0 0 1-9.444977-22.718999l209.491289-209.519652a13.330748 13.330748 0 0 1 18.889954 18.833227l-209.519652 209.491289a13.245658 13.245658 0 0 1-9.416614 3.914135z" fill="#F15A25" p-id="3528"></path><path d="M580.62499 682.676121a13.359111 13.359111 0 0 1-9.416614-3.885771L215.475944 322.972828a13.274022 13.274022 0 1 1 18.833227-18.833227l355.732432 355.789158a13.330748 13.330748 0 0 1-9.416613 22.747362zM494.230396 727.206493a13.245658 13.245658 0 0 1-9.416613-3.885772L170.888846 409.367421a13.274022 13.274022 0 1 1 18.833227-18.804864l313.924937 313.896574a13.330748 13.330748 0 0 1-9.416614 22.747362z" fill="#F15A25" p-id="3529"></path><path d="M837.653159 809.034595a26.576406 26.576406 0 0 1-18.833227-7.771542L278.04537 260.431765a26.718223 26.718223 0 0 1 0-37.666455 26.576406 26.576406 0 0 1 37.666455 0L856.514749 763.539872a26.661496 26.661496 0 0 1-18.86159 45.494723z" fill="#0031CB" p-id="3530"></path><path d="M438.9787 734.552586a229.033598 229.033598 0 0 1-162.464948-67.192644l-49.635764-49.607401c-89.599645-89.599645-89.599645-235.443703 0-325.014985l60.583996-60.555632a13.274022 13.274022 0 1 1 18.833227 18.833227l-60.583996 60.555633c-79.21868 79.21868-79.21868 208.101487 0 287.34853l49.607401 49.579038c79.275406 79.247043 208.101487 79.21868 287.291804 0l60.555633-60.555633a13.330748 13.330748 0 0 1 18.889953 18.833228l-60.583995 60.583995a229.175415 229.175415 0 0 1-162.493311 67.192644z" fill="#0031CB" p-id="3531"></path></svg>